<?xml version="1.0" encoding="UTF-8" standalone="no"?>
<svg
   xmlns:dc="http://purl.org/dc/elements/1.1/"
   xmlns:cc="http://creativecommons.org/ns#"
   xmlns:rdf="http://www.w3.org/1999/02/22-rdf-syntax-ns#"
   xmlns:svg="http://www.w3.org/2000/svg"
   xmlns="http://www.w3.org/2000/svg"
   xmlns:sodipodi="http://sodipodi.sourceforge.net/DTD/sodipodi-0.dtd"
   xmlns:inkscape="http://www.inkscape.org/namespaces/inkscape"
   inkscape:version="1.0 (1.0+r73+1)"
   id="svg8"
   version="1.1"
   viewBox="0 0 16.933333 16.933333"
   height="64"
   width="64"
   sodipodi:docname="preview-all.svg">
  <defs
     id="defs2" />
  <sodipodi:namedview
     inkscape:snap-global="false"
     units="px"
     showgrid="false"
     inkscape:document-rotation="0"
     inkscape:current-layer="svg8"
     inkscape:document-units="mm"
     inkscape:cy="19.352832"
     inkscape:cx="18.490698"
     inkscape:zoom="5"
     inkscape:pageshadow="2"
     inkscape:pageopacity="0.0"
     borderopacity="1.0"
     bordercolor="#666666"
     pagecolor="#ffffff"
     id="base"
     inkscape:window-width="2514"
     inkscape:window-height="1369"
     inkscape:window-x="46"
     inkscape:window-y="34"
     inkscape:window-maximized="1" />
  <metadata
     id="metadata5">
    <rdf:RDF>
      <cc:Work
         rdf:about="">
        <dc:format>image/svg+xml</dc:format>
        <dc:type
           rdf:resource="http://purl.org/dc/dcmitype/StillImage" />
        <dc:title />
      </cc:Work>
    </rdf:RDF>
  </metadata>
  <path
     transform="scale(0.26458333)"
     d="M 11.056641 3.515625 C 9.9818006 3.515625 9.0912123 4.3255082 8.8457031 5.4199219 C 8.8452563 5.9126711 8.84375 5.9318181 8.84375 6.5683594 L 8.84375 56.691406 C 8.84375 57.282111 8.8453095 57.287398 8.8457031 57.757812 C 9.0910909 58.852417 9.9816773 59.664062 11.056641 59.664062 L 54.613281 59.664062 C 55.878452 59.664062 56.896484 58.545098 56.896484 57.15625 L 56.896484 18.839844 L 42.464844 3.515625 L 11.056641 3.515625 z "
     style="fill:#f9f9f9;fill-opacity:0.996078;stroke-width:1.51181104;stroke-linejoin:bevel;stroke-dashoffset:45.8079;stroke-opacity:1;paint-order:stroke markers fill;stroke:#808080;stroke-miterlimit:4;stroke-dasharray:none"
     id="rect1054" />
  <path
     d="m 11.323579,0.84420305 c -2.47e-4,2.49e-6 0.0023,0.31126745 0.0058,0.69807765 l 0.02568,2.8271153 c 0.0035,0.3868104 0.0066,0.6980701 0.0069,0.6980676 l 3.70952,-0.037582 c 1.6e-5,-2e-7 -4.23e-4,-0.04468 -4.31e-4,-0.047488 C 14.941801,4.8385386 14.916192,4.8104742 14.724209,4.5964704 L 11.798272,1.3354247 C 11.554146,1.0632985 11.488605,0.98965274 11.358056,0.84385375 Z"
     style="fill:#808080;fill-opacity:1;stroke-width:1.8241;stroke-linejoin:bevel;stroke-dashoffset:45.8079;stroke-opacity:0.996078;paint-order:stroke markers fill"
     id="rect1056" />
  <rect
     ry="0"
     rx="0"
     y="7.9953918"
     x="4.3783617"
     height="0.92694217"
     width="8.5433874"
     id="rect1099"
     style="fill:#e6e6e6;fill-opacity:0.996078;stroke-width:2.30803;stroke-linejoin:bevel;stroke-dashoffset:45.8079;stroke-opacity:0.996078;paint-order:stroke markers fill" />
  <rect
     style="fill:#e6e6e6;fill-opacity:0.996078;stroke-width:2.30803;stroke-linejoin:bevel;stroke-dashoffset:45.8079;stroke-opacity:0.996078;paint-order:stroke markers fill"
     id="rect1101"
     width="8.5433874"
     height="0.92694217"
     x="4.3783617"
     y="9.8509912"
     rx="0"
     ry="0" />
  <rect
     ry="0"
     rx="0"
     y="11.706587"
     x="4.3783617"
     height="0.92694217"
     width="8.5433874"
     id="rect1103"
     style="fill:#e6e6e6;fill-opacity:0.996078;stroke-width:2.30803;stroke-linejoin:bevel;stroke-dashoffset:45.8079;stroke-opacity:0.996078;paint-order:stroke markers fill" />
  <ellipse
     ry="2.3919826"
     rx="2.3637474"
     cy="9.6666431"
     cx="9.7309217"
     id="path850"
     style="fill:#ffffff;fill-opacity:1;stroke:none;stroke-width:2.01945;stroke-miterlimit:4;stroke-dasharray:none;stroke-opacity:1;paint-order:stroke fill markers;opacity:0.36413984" />
  <g
     transform="translate(0.0134229,0.02888709)"
     id="g1466">
    <rect
       style="fill:#00ccff;fill-opacity:0.996078;stroke:none;stroke-width:0.139856;stroke-linejoin:bevel;stroke-miterlimit:4;stroke-dasharray:none;stroke-dashoffset:45.8079;stroke-opacity:1;paint-order:stroke markers fill"
       id="rect1107"
       width="2.0152698"
       height="4.8560543"
       x="1.7366725"
       y="16.211212"
       transform="matrix(0.89353538,-0.44899278,0.54835013,0.83624885,0,0)" />
    <circle
       style="fill:none;fill-opacity:0.996078;stroke:#00ccff;stroke-width:1.88522;stroke-linejoin:bevel;stroke-miterlimit:4;stroke-dasharray:none;stroke-dashoffset:45.8079;stroke-opacity:0.996078;paint-order:stroke markers fill"
       id="path1105"
       cx="9.8043327"
       cy="9.6288538"
       r="3.0396254" />
  </g>
</svg>
