<?xml version="1.0" encoding="UTF-8" standalone="no"?>
<svg
   xmlns:dc="http://purl.org/dc/elements/1.1/"
   xmlns:cc="http://creativecommons.org/ns#"
   xmlns:rdf="http://www.w3.org/1999/02/22-rdf-syntax-ns#"
   xmlns:svg="http://www.w3.org/2000/svg"
   xmlns="http://www.w3.org/2000/svg"
   xmlns:xlink="http://www.w3.org/1999/xlink"
   xmlns:sodipodi="http://sodipodi.sourceforge.net/DTD/sodipodi-0.dtd"
   xmlns:inkscape="http://www.inkscape.org/namespaces/inkscape"
   inkscape:export-ydpi="96"
   inkscape:export-xdpi="96"
   inkscape:export-filename="/home/tuncay/Arbeitsplatz/Gamelist Extra/current/data-src/PNG/app_gamelistwink.png"
   sodipodi:docname="winkemojis-all.svg"
   width="64"
   height="64"
   viewBox="0 0 16.933333 16.933333"
   version="1.1"
   id="svg8"
   inkscape:version="1.0 (1.0+r73+1)">
  <defs
     id="defs2">
    <inkscape:path-effect
       fuse_tolerance="0"
       hide_knot="false"
       vertical_pattern="false"
       prop_units="false"
       tang_offset="0"
       normal_offset="0"
       spacing="0"
       scale_y_rel="false"
       prop_scale="0.089127614"
       copytype="single_stretched"
       pattern="m 22.101775,-7.2741444 c -0.545736,-4.0817566 -2.671007,-7.2427986 -4.743908,-7.0558976 -2.072901,0.186901 -3.312341,3.65132 -2.766605,7.7330763 0.545735,4.0817568 2.671006,7.2427989 4.743907,7.05589764 2.072901,-0.18690138 3.31234,-3.65131944 2.766606,-7.73307634 z"
       lpeversion="1"
       is_visible="true"
       id="path-effect863"
       effect="skeletal" />
    <inkscape:path-effect
       lpeversion="1"
       is_visible="true"
       id="path-effect861"
       effect="spiro" />
    <inkscape:path-effect
       effect="skeletal"
       id="path-effect857"
       is_visible="true"
       lpeversion="1"
       pattern="m -5.1717965,-7.2741444 c 0.5457358,-4.0817566 2.6710062,-7.2427986 4.74390724,-7.0558976 2.07290166,0.186901 3.31234106,3.65132 2.76660576,7.7330763 C 1.7929811,-2.5152089 -0.3322896,0.6458332 -2.4051911,0.45893194 -4.4780923,0.27203056 -5.7175312,-3.1923875 -5.1717965,-7.2741444 Z"
       copytype="single_stretched"
       prop_scale="0.089127614"
       scale_y_rel="false"
       spacing="0"
       normal_offset="0"
       tang_offset="0"
       prop_units="false"
       vertical_pattern="false"
       hide_knot="false"
       fuse_tolerance="0" />
    <inkscape:path-effect
       effect="spiro"
       id="path-effect855"
       is_visible="true"
       lpeversion="1" />
    <inkscape:path-effect
       fuse_tolerance="0"
       hide_knot="false"
       vertical_pattern="false"
       prop_units="false"
       tang_offset="0"
       normal_offset="0"
       spacing="0"
       scale_y_rel="false"
       prop_scale="0.089127614"
       copytype="single_stretched"
       pattern="m -12.890069,-1.6344994 c -0.30453,-3.2618447 1.125944,-6.0657648 3.1930225,-6.2587502 2.0670789,-0.1929854 3.9918635,2.297683 4.2963939,5.5595277 0.3045304,3.26184461 -1.1259439,6.0657646 -3.1930228,6.2587501 -2.0670786,0.1929853 -3.9918626,-2.297683 -4.2963936,-5.5595276 z"
       lpeversion="1"
       is_visible="true"
       id="path-effect851"
       effect="skeletal" />
    <inkscape:path-effect
       lpeversion="1"
       is_visible="true"
       id="path-effect849"
       effect="spiro" />
    <linearGradient
       id="linearGradient910"
       inkscape:collect="always">
      <stop
         id="stop906"
         offset="0"
         style="stop-color:#aeda00;stop-opacity:1" />
      <stop
         id="stop908"
         offset="1"
         style="stop-color:#f1ffb2;stop-opacity:1" />
    </linearGradient>
    <linearGradient
       y2="2.984206"
       x2="4.4429193"
       y1="14.342059"
       x1="12.535604"
       gradientTransform="rotate(3.1285312,10.155484,10.256673)"
       gradientUnits="userSpaceOnUse"
       id="linearGradient1034"
       xlink:href="#linearGradient910"
       inkscape:collect="always" />
  </defs>
  <sodipodi:namedview
     inkscape:window-maximized="1"
     inkscape:window-y="34"
     inkscape:window-x="46"
     inkscape:window-height="1369"
     inkscape:window-width="2514"
     id="base"
     pagecolor="#ffffff"
     bordercolor="#666666"
     borderopacity="1.0"
     inkscape:pageopacity="0.0"
     inkscape:pageshadow="2"
     inkscape:zoom="10"
     inkscape:cx="40.837223"
     inkscape:cy="16.022473"
     inkscape:document-units="mm"
     inkscape:current-layer="layer3"
     inkscape:document-rotation="0"
     showgrid="false"
     units="px"
     inkscape:snap-global="false" />
  <metadata
     id="metadata5">
    <rdf:RDF>
      <cc:Work
         rdf:about="">
        <dc:format>image/svg+xml</dc:format>
        <dc:type
           rdf:resource="http://purl.org/dc/dcmitype/StillImage" />
        <dc:title></dc:title>
      </cc:Work>
    </rdf:RDF>
  </metadata>
  <g
     inkscape:groupmode="layer"
     id="layer2"
     inkscape:label="base-head"
     style="display:inline">
    <path
       id="path843-0"
       style="display:inline;fill:url(#linearGradient1034);fill-opacity:1;stroke:none;stroke-width:0.4;stroke-linecap:butt;stroke-linejoin:miter;stroke-miterlimit:2.7;stroke-dasharray:none;stroke-dashoffset:0;stroke-opacity:0.941176;paint-order:stroke fill markers"
       d="M 15.761433,8.8660926 A 7.3187119,7.2129 3.1285312 0 1 8.0599773,15.668816 7.3187119,7.2129 3.1285312 0 1 1.1458238,8.0672399 7.3187119,7.2129 3.1285312 0 1 8.8472802,1.2645175 7.3187119,7.2129 3.1285312 0 1 15.761433,8.8660926"
       inkscape:transform-center-x="-0.041549973"
       inkscape:transform-center-y="0.056498607" />
  </g>
  <g
     style="display:none"
     inkscape:groupmode="layer"
     id="layer1"
     inkscape:label="wink">
    <path
       id="path1097-8"
       style="fill:#aaeeff;stroke-width:3.316;stroke-linecap:square;stroke-linejoin:round;paint-order:markers fill stroke"
       d="m -20.605801,21.332026 a 0.13426507,0.13426507 0 0 1 -0.09351,0.127931 l -0.04075,-0.127931 z" />
    <rect
       ry="0.71945745"
       y="5.8350482"
       x="9.4164114"
       height="1.4397116"
       width="4.5914288"
       id="rect845"
       style="fill:#006680;fill-opacity:1;stroke:none;stroke-width:2.79451;stroke-linecap:square;stroke-linejoin:round;stroke-miterlimit:4;stroke-dasharray:none;paint-order:markers fill stroke"
       inkscape:transform-center-x="-2.9248519"
       inkscape:transform-center-y="-1.2258315"
       transform="rotate(3.1285312)" />
    <g
       style="fill:#006680;fill-opacity:1"
       transform="matrix(0.84745119,0.04631957,-0.04564989,0.8351989,17.530806,14.985002)"
       id="g853"
       inkscape:transform-center-x="2.9348193"
       inkscape:transform-center-y="-1.4688445">
      <rect
         ry="0.86013663"
         y="-9.6763153"
         x="-17.403097"
         height="1.7212256"
         width="5.409852"
         id="rect847"
         style="fill:#006680;fill-opacity:1;stroke:none;stroke-width:3.316;stroke-linecap:square;stroke-linejoin:round;paint-order:markers fill stroke" />
      <rect
         style="fill:#006680;fill-opacity:1;stroke:none;stroke-width:3.316;stroke-linecap:square;stroke-linejoin:round;paint-order:markers fill stroke"
         id="rect849"
         width="5.409852"
         height="1.7212256"
         x="-11.520629"
         y="13.837559"
         ry="0.86013663"
         transform="rotate(90)" />
    </g>
    <path
       inkscape:transform-center-y="3.4899264"
       inkscape:transform-center-x="0.00099292403"
       id="path904"
       style="fill:#006680;fill-opacity:1;stroke-width:2.55216;stroke-linejoin:bevel;stroke-dashoffset:45.8079;stroke-opacity:0.996078;paint-order:stroke markers fill"
       d="m 5.2793015,11.457433 c 1.3689074,0.874277 2.4884252,2.773909 4.1057897,2.624314 1.0304198,-0.0953 4.1915408,-4.7752877 2.0571938,-4.3435211 L 5.4028274,10.744979 c -1.1335789,0.118378 -0.8129393,0.27134 -0.1235204,0.712449 z"
       sodipodi:nodetypes="cscccc" />
  </g>
  <g
     style="display:none;opacity:1"
     inkscape:label="😂joytears"
     id="g841"
     inkscape:groupmode="layer">
    <path
       id="rect984-6"
       style="display:inline;fill:#2ad4ff;fill-opacity:1;stroke:none;stroke-width:3.67567;stroke-linecap:square;stroke-linejoin:round;stroke-miterlimit:4;stroke-dasharray:none;paint-order:markers fill stroke"
       inkscape:transform-center-x="0.121073"
       inkscape:transform-center-y="0.29810875"
       d="M 3.527212,9.6040745 2.7304275,10.945157 c -0.3052857,0.513832 -1.6269883,0.444421 -1.92039618,0.205809 -3.7722e-4,-3.08e-4 -7.5564e-4,-6.14e-4 -0.001133,-9.21e-4 C 0.33960682,10.768394 0.13151076,9.6523774 0.60153143,9.2151074 L 1.7578536,8.139356 C 2.3058741,7.6295212 3.4723688,7.1663724 3.8686435,7.3446506 4.1703953,8.0104289 3.8805956,8.9354182 3.527212,9.6040745 Z"
       sodipodi:nodetypes="cssssscc" />
    <path
       sodipodi:nodetypes="cssssscc"
       d="m 13.406152,9.6040745 0.796785,1.3410825 c 0.305285,0.513832 1.626988,0.444421 1.920396,0.205809 3.77e-4,-3.08e-4 7.56e-4,-6.14e-4 0.0011,-9.21e-4 0.469294,-0.381651 0.67739,-1.4976676 0.20737,-1.9349376 L 15.175511,8.139356 C 14.62749,7.6295212 13.460995,7.1663724 13.064721,7.3446506 c -0.301752,0.6657783 -0.01195,1.5907676 0.341431,2.2594239 z"
       inkscape:transform-center-y="0.29810875"
       inkscape:transform-center-x="-0.12107284"
       style="display:inline;fill:#2ad4ff;fill-opacity:1;stroke:none;stroke-width:3.67567;stroke-linecap:square;stroke-linejoin:round;stroke-miterlimit:4;stroke-dasharray:none;paint-order:markers fill stroke"
       id="path1085" />
    <path
       sodipodi:nodetypes="csac"
       inkscape:original-d="M 7.7921274,7.0295863 C 7.2487693,6.2048433 6.705558,5.3796904 6.162492,4.5541291 5.619426,3.7285677 4.2677448,6.2709401 4.059634,7.4439315 c -0.01163,0.065553 0.05806,0.1810658 0.05479,0.1920696"
       inkscape:path-effect="#path-effect861;#path-effect863"
       id="path859"
       d="m 4.1065456,7.5043883 c 0.00807,-0.023978 0.015703,-0.049923 0.023115,-0.077726 C 4.2229647,7.0788137 4.3150984,6.2845837 4.8259953,5.7535022 4.9968562,5.5704805 5.210107,5.4122891 5.4422889,5.3186609 5.6580445,5.2310758 5.8994186,5.1889389 6.1225333,5.2098829 6.23161,5.2180375 6.3427813,5.2432992 6.45091,5.282157 6.718621,5.3783631 6.9405947,5.5457513 7.0850326,5.7209419 7.3636868,6.0453242 7.450639,6.4894688 7.5084549,6.7079327 7.5670599,6.9293777 7.6499373,7.0992842 7.8603436,6.9147989 8.0558872,6.7433455 8.4239267,6.0272445 7.9782574,5.1329169 7.6834691,4.5526355 7.058187,4.0228696 6.2004558,3.9311142 5.7434704,3.8859949 5.275927,3.9715194 4.8563233,4.1852618 4.6928858,4.2688213 4.540022,4.3688463 4.3998173,4.4830205 4.1776153,4.6639683 3.9978494,4.8716896 3.8588177,5.0888863 3.1504011,6.2203629 3.53266,7.2485981 3.7343042,7.5241626 c 0,0 0,10e-8 0,10e-8 0.174852,0.2389636 0.300809,0.1925477 0.3722414,-0.019774 z"
       style="display:inline;fill:#006680;fill-opacity:1;stroke:none;stroke-width:0.280523px;stroke-linecap:butt;stroke-linejoin:miter;stroke-opacity:1" />
    <path
       style="display:inline;fill:#006680;fill-opacity:1;stroke:none;stroke-width:0.280523px;stroke-linecap:butt;stroke-linejoin:miter;stroke-opacity:1"
       d="M 9.0696342,6.9147993 C 8.8740903,6.7433456 8.506051,6.0272443 8.9517205,5.1329168 9.2465088,4.5526354 9.871791,4.0228695 10.729522,3.9311142 c 0.456986,-0.045119 0.924529,0.040405 1.344133,0.2541476 0.163437,0.083559 0.316301,0.1835844 0.456505,0.2977585 0.222202,0.1809478 0.401969,0.3886692 0.541,0.605866 0.708417,1.1314766 0.326158,2.1597118 0.124514,2.4352763 0,0 0,10e-8 0,10e-8 -0.174852,0.2389638 -0.300809,0.1925476 -0.372241,-0.019775 -0.0081,-0.023977 -0.0157,-0.049922 -0.02311,-0.077726 C 12.707013,7.0788143 12.61488,6.2845839 12.103983,5.7535022 11.933122,5.5704806 11.719871,5.4122891 11.487689,5.3186609 11.271933,5.2310758 11.030559,5.1889389 10.807445,5.2098829 10.698368,5.2180375 10.587196,5.2432992 10.479068,5.282157 10.211357,5.3783631 9.9893831,5.5457513 9.8449452,5.7209419 9.566291,6.0453242 9.4793387,6.4894687 9.4215227,6.7079325 9.3629177,6.9293777 9.2800404,7.099284 9.0696342,6.9147993 Z"
       id="path853"
       inkscape:path-effect="#path-effect855;#path-effect857"
       inkscape:original-d="M 9.1378502,7.0295863 C 9.6812083,6.2048433 10.22442,5.3796904 10.767486,4.5541291 c 0.543066,-0.8255614 1.894747,1.716811 2.102858,2.8898024 0.01163,0.065553 -0.05806,0.1810658 -0.05479,0.1920696"
       sodipodi:nodetypes="csac" />
    <path
       inkscape:transform-center-y="3.4899264"
       inkscape:transform-center-x="0.00099292403"
       id="path844"
       style="display:inline;fill:#006680;fill-opacity:1;stroke-width:2.55216;stroke-linejoin:bevel;stroke-dashoffset:45.8079;stroke-opacity:0.996078;paint-order:stroke markers fill"
       d="M 8.7417642,14.220429 C 10.563347,14.184879 12.716893,10.937043 12.505742,10.528233 11.666107,8.902614 9.2635012,9.35848 8.1744132,9.272584 c -1.246473,-0.09831 -3.737202,0.3582881 -3.737884,1.43806 -4.47e-4,0.706433 2.406904,3.546834 4.305235,3.509785 z"
       sodipodi:nodetypes="sssss" />
  </g>
  <g
     inkscape:groupmode="layer"
     id="layer3"
     inkscape:label="😭cryingtears"
     style="display:inline">
    <path
       id="path954"
       style="display:inline;fill:#2ad4ff;fill-opacity:1;stroke:none;stroke-width:0.4;stroke-linecap:butt;stroke-linejoin:miter;stroke-miterlimit:2.7;stroke-dasharray:none;stroke-dashoffset:0;stroke-opacity:0.941176;paint-order:stroke fill markers"
       inkscape:transform-center-x="-0.041549973"
       inkscape:transform-center-y="0.056498607"
       d="M 4.5207647,7.1488459 C 3.9048041,7.1567459 3.4108699,7.3341175 3.412822,7.5462377 l 0.057361,6.2507813 a 7.3187117,7.2128998 3.1285312 0 0 2.2277708,1.365291 c 0.00292,-0.01159 0.00993,-0.02279 0.00982,-0.03462 L 5.6374938,7.5178186 C 5.6355338,7.3056954 5.1382752,7.1409479 4.5223148,7.1488459 Z" />
    <path
       id="rect845-8"
       style="display:inline;fill:#006680;fill-opacity:1;stroke:none;stroke-width:2.7945;stroke-linecap:square;stroke-linejoin:round;stroke-miterlimit:4;stroke-dasharray:none;paint-order:markers fill stroke"
       inkscape:transform-center-x="0.15228267"
       inkscape:transform-center-y="-0.1182998"
       d="M 7.3381042,7.7676264 C 7.6965762,7.6955154 7.9397912,7.3231447 7.8919012,6.9659279 7.8916112,6.6824658 7.6990232,6.4428629 7.4560592,6.3173384 6.5888492,5.7742806 5.7229352,5.2290995 4.8549152,4.6873705 4.5009562,4.474673 3.9949902,4.6489395 3.8434552,5.031987 c -0.157341,0.3392353 0.0077,0.7687503 0.339512,0.9326793 0.408416,0.2561226 0.816829,0.5122461 1.225245,0.7683688 -0.511553,0.1196575 -1.025551,0.2299981 -1.535541,0.3556162 -0.395131,0.120254 -0.603716,0.6122813 -0.422932,0.9813815 0.141741,0.3320109 0.547438,0.4993209 0.885995,0.3858089 1.00079,-0.229403 2.00158,-0.4588062 3.002369,-0.6882087 z" />
    <path
       d="m 12.3153,7.1488459 c 0.61596,0.0079 1.109894,0.1852716 1.107942,0.3973918 l -0.05736,6.2507813 a 7.2128998,7.3187117 86.871469 0 1 -2.227771,1.365291 c -0.0029,-0.01159 -0.0099,-0.02279 -0.0098,-0.03462 l 0.07028,-7.6098714 c 0.002,-0.2121232 0.499219,-0.3768707 1.115179,-0.3689727 z"
       inkscape:transform-center-y="0.056498607"
       inkscape:transform-center-x="0.041549967"
       style="display:inline;fill:#2ad4ff;fill-opacity:1;stroke:none;stroke-width:0.4;stroke-linecap:butt;stroke-linejoin:miter;stroke-miterlimit:2.7;stroke-dasharray:none;stroke-dashoffset:0;stroke-opacity:0.941176;paint-order:stroke fill markers"
       id="path965" />
    <path
       d="m 9.4979598,7.7676264 c -0.358472,-0.072111 -0.601687,-0.4444817 -0.553797,-0.8016985 2.9e-4,-0.2834621 0.192878,-0.523065 0.435842,-0.6485895 0.8672102,-0.5430578 1.7331242,-1.0882389 2.6011442,-1.6299679 0.353959,-0.2126975 0.859925,-0.038431 1.01146,0.3446165 0.157341,0.3392353 -0.0077,0.7687503 -0.339512,0.9326793 -0.408416,0.2561226 -0.816829,0.5122461 -1.225245,0.7683688 0.511553,0.1196575 1.025551,0.2299981 1.535541,0.3556162 0.395131,0.120254 0.603716,0.6122813 0.422932,0.9813815 C 13.244584,8.4020437 12.838887,8.5693537 12.50033,8.4558417 11.49954,8.2264387 10.49875,7.9970355 9.4979608,7.767633 Z"
       inkscape:transform-center-y="-0.1182998"
       inkscape:transform-center-x="-0.15228268"
       style="display:inline;fill:#006680;fill-opacity:1;stroke:none;stroke-width:2.7945;stroke-linecap:square;stroke-linejoin:round;stroke-miterlimit:4;stroke-dasharray:none;paint-order:markers fill stroke"
       id="path967" />
    <rect
       transform="matrix(0.00975868,0.99995238,-0.99999754,0.00221586,0,0)"
       inkscape:transform-center-y="-0.014063295"
       inkscape:transform-center-x="-0.053135606"
       style="display:inline;fill:#006680;fill-opacity:1;stroke:none;stroke-width:2.76783;stroke-linecap:square;stroke-linejoin:round;stroke-miterlimit:4;stroke-dasharray:none;paint-order:markers fill stroke"
       id="rect984"
       width="3.1392434"
       height="2.0656984"
       x="10.571731"
       y="-9.2768621"
       ry="1.0322777" />
  </g>
</svg>
