<?xml version="1.0" encoding="UTF-8"?>
<svg width="64" height="64" version="1.1" viewBox="0 0 16.933 16.933" xmlns="http://www.w3.org/2000/svg" xmlns:cc="http://creativecommons.org/ns#" xmlns:dc="http://purl.org/dc/elements/1.1/" xmlns:rdf="http://www.w3.org/1999/02/22-rdf-syntax-ns#">
 <metadata>
  <rdf:RDF>
   <cc:Work rdf:about="">
    <dc:format>image/svg+xml</dc:format>
    <dc:type rdf:resource="http://purl.org/dc/dcmitype/StillImage"/>
    <dc:title/>
   </cc:Work>
  </rdf:RDF>
 </metadata>
 <path transform="scale(.26458)" d="m11.057 3.5156c-1.0748 0-1.9654 0.80988-2.2109 1.9043-4.468e-4 0.49275-0.0019531 0.5119-0.0019531 1.1484v50.123c0 0.5907 0.0015595 0.59599 0.0019531 1.0664 0.24539 1.0946 1.136 1.9062 2.2109 1.9062h43.557c1.2652 0 2.2832-1.119 2.2832-2.5078v-38.316l-14.432-15.324h-31.408z" fill="#f9f9f9" fill-opacity=".99608" stroke="#808080" stroke-dashoffset="45.808" stroke-linejoin="bevel" stroke-width="1.5118" style="paint-order:stroke markers fill"/>
 <path d="m11.324 0.8442c-2.47e-4 2.49e-6 0.0023 0.31127 0.0058 0.69808l0.02568 2.8271c0.0035 0.38681 0.0066 0.69807 0.0069 0.69807l3.7095-0.037582c1.6e-5 -2e-7 -4.23e-4 -0.04468-4.31e-4 -0.047488-0.12925-0.14386-0.15486-0.17192-0.34684-0.38592l-2.9259-3.261c-0.24413-0.27213-0.30967-0.34577-0.44022-0.49157z" fill="#808080" stroke-dashoffset="45.808" stroke-linejoin="bevel" stroke-opacity=".99608" stroke-width="1.8241" style="paint-order:stroke markers fill"/>
 <g fill="#e6e6e6" fill-opacity=".99608" stroke-dashoffset="45.808" stroke-linejoin="bevel" stroke-opacity=".99608" stroke-width="2.308">
  <rect x="4.3784" y="7.9954" width="8.5434" height=".92694" rx="0" ry="0" style="paint-order:stroke markers fill"/>
  <rect x="4.3784" y="9.851" width="8.5434" height=".92694" rx="0" ry="0" style="paint-order:stroke markers fill"/>
  <rect x="4.3784" y="11.707" width="8.5434" height=".92694" rx="0" ry="0" style="paint-order:stroke markers fill"/>
 </g>
 <ellipse cx="9.7309" cy="9.6666" rx="2.3637" ry="2.392" fill="#fff" opacity=".36414" style="paint-order:stroke fill markers"/>
 <g transform="translate(.013423 .028887)">
  <rect transform="matrix(.89354 -.44899 .54835 .83625 0 0)" x="1.7367" y="16.211" width="2.0153" height="4.8561" fill="#0cf" fill-opacity=".99608" style="paint-order:stroke markers fill"/>
  <circle cx="9.8043" cy="9.6289" r="3.0396" fill="none" stroke="#0cf" stroke-dashoffset="45.808" stroke-linejoin="bevel" stroke-opacity=".99608" stroke-width="1.8852" style="paint-order:stroke markers fill"/>
 </g>
</svg>
