<?xml version="1.0" encoding="UTF-8"?>
<svg width="64" height="64" version="1.1" viewBox="0 0 16.933 16.933" xmlns="http://www.w3.org/2000/svg" xmlns:cc="http://creativecommons.org/ns#" xmlns:dc="http://purl.org/dc/elements/1.1/" xmlns:rdf="http://www.w3.org/1999/02/22-rdf-syntax-ns#">
 <metadata>
  <rdf:RDF>
   <cc:Work rdf:about="">
    <dc:format>image/svg+xml</dc:format>
    <dc:type rdf:resource="http://purl.org/dc/dcmitype/StillImage"/>
    <dc:title/>
   </cc:Work>
  </rdf:RDF>
 </metadata>
 <circle cx="8.4935" cy="8.4329" r="6.5979" fill="#f9f9f9" style="paint-order:markers fill stroke"/>
 <g transform="matrix(.68043 .5583 -.5974 .63589 8.7261 .033637)" fill="#aad400" stroke="#aad400" stroke-dashoffset="5.0793" stroke-linecap="square" stroke-linejoin="round">
  <path transform="scale(.26458)" d="m25.201 1.7578v0.013672h0.14062v-0.013672zm0 0.27344v8.6523c9.878 1.8454 17.438 10.064 17.438 20.498v0.0078c2.4e-5 1.4777-0.45508 4.2812-0.45508 4.2812h8.2793s0.31643-2.8326 0.31641-4.2891c-0.003528-14.892-11.186-27.258-25.578-29.15z" color="#000000" color-rendering="auto" dominant-baseline="auto" image-rendering="auto" shape-rendering="auto" solid-color="#000000" stop-color="#000000" stroke-width="3.4542" style="font-feature-settings:normal;font-variant-alternates:normal;font-variant-caps:normal;font-variant-east-asian:normal;font-variant-ligatures:normal;font-variant-numeric:normal;font-variant-position:normal;font-variation-settings:normal;inline-size:0;isolation:auto;mix-blend-mode:normal;paint-order:markers fill stroke;shape-margin:0;shape-padding:0;text-decoration-color:#000000;text-decoration-line:none;text-decoration-style:solid;text-indent:0;text-orientation:mixed;text-transform:none;white-space:normal"/>
  <path d="m6.7759 4.8922v-6.1783l-0.04056-0.04056-3.1297 3.1297 3.1297 3.1297z" stroke-width=".91394" style="paint-order:markers fill stroke"/>
 </g>
 <g transform="matrix(-.68043 -.5583 .5974 -.63589 8.1816 16.744)" fill="#aad400" stroke="#aad400" stroke-linejoin="round" stroke-width=".91394">
  <g transform="translate(-.13466 -.12023)" fill="#aad400" stroke="#aad400" stroke-dashoffset="5.0793" stroke-linecap="square" stroke-linejoin="round">
   <path transform="scale(.26458)" d="m25.201 1.7578v0.013672h0.14062v-0.013672zm0 0.27344v8.6523c9.878 1.8454 17.438 10.064 17.438 20.498v0.0078c2.4e-5 1.4777-0.45508 4.2812-0.45508 4.2812h8.2793s0.31643-2.8326 0.31641-4.2891c-0.003528-14.892-11.186-27.258-25.578-29.15z" color="#000000" color-rendering="auto" dominant-baseline="auto" image-rendering="auto" shape-rendering="auto" solid-color="#000000" stop-color="#000000" stroke-width="3.4542" style="font-feature-settings:normal;font-variant-alternates:normal;font-variant-caps:normal;font-variant-east-asian:normal;font-variant-ligatures:normal;font-variant-numeric:normal;font-variant-position:normal;font-variation-settings:normal;inline-size:0;isolation:auto;mix-blend-mode:normal;paint-order:markers fill stroke;shape-margin:0;shape-padding:0;text-decoration-color:#000000;text-decoration-line:none;text-decoration-style:solid;text-indent:0;text-orientation:mixed;text-transform:none;white-space:normal"/>
   <path d="m6.7759 4.8922v-6.1783l-0.04056-0.04056-3.1297 3.1297 3.1297 3.1297z" stroke-width=".91394" style="paint-order:markers fill stroke"/>
  </g>
 </g>
</svg>
