<?xml version="1.0" encoding="UTF-8"?>
<svg width="64" height="64" version="1.1" viewBox="0 0 16.933 16.933" xmlns="http://www.w3.org/2000/svg" xmlns:cc="http://creativecommons.org/ns#" xmlns:dc="http://purl.org/dc/elements/1.1/" xmlns:rdf="http://www.w3.org/1999/02/22-rdf-syntax-ns#">
 <metadata>
  <rdf:RDF>
   <cc:Work rdf:about="">
    <dc:format>image/svg+xml</dc:format>
    <dc:type rdf:resource="http://purl.org/dc/dcmitype/StillImage"/>
    <dc:title/>
   </cc:Work>
  </rdf:RDF>
 </metadata>
 <g transform="translate(-89.073 -114.01)" display="none" fill="#f0f">
  <rect x="92.132" y="122.27" width="10.91" height="7.5985" rx="0" ry=".86014" display="inline" style="paint-order:markers fill stroke"/>
  <path d="m97.576 115.21c-1.8083-0.0349-3.5173 1.3745-3.8126 3.1619-0.12295 0.86571-0.04883 1.7429-0.06684 2.6145v3.0581h1.1634c0.01048-1.742-0.02128-3.4854 0.01618-5.2266 0.12354-1.3517 1.3821-2.4844 2.7432-2.4374 1.0862 7e-3 2.1355 0.70268 2.521 1.7259 0.29121 0.747 0.16161 1.5578 0.18909 2.3392v3.5989h1.1259c-8e-3 -1.7695 0.0181-3.5397-0.014-5.3087-0.13252-1.7258-1.5578-3.253-3.2782-3.4811-0.19417-0.0297-0.3906-0.0447-0.58703-0.0447z" display="inline" style="paint-order:markers fill stroke"/>
 </g>
 <g transform="translate(-89.073 -114.01)" fill="#b3b3b3">
  <path d="m97.576 115.21c-1.8083-0.0349-3.5174 1.3745-3.8126 3.1619-4e-3 0.8544 0.23265 0.99094 0.37156 1.017 0.2428 0.0455 0.44824-0.063 0.74128-0.57093 0.12353-1.3517 1.3821-2.4844 2.7432-2.4374 1.0862 7e-3 2.1355 0.70268 2.5209 1.7259 0.29121 0.747 0.16161 1.5578 0.18909 2.3392v3.5989h1.1259c-8e-3 -1.7695 0.0181-3.5397-0.014-5.3087-0.13252-1.7258-1.5578-3.253-3.2782-3.4811-0.19417-0.0297-0.3906-0.0447-0.58703-0.0447z" style="paint-order:markers fill stroke"/>
  <rect x="92.132" y="122.27" width="10.91" height="7.5985" rx="0" ry=".86014" style="paint-order:markers fill stroke"/>
 </g>
</svg>
