<?xml version="1.0" encoding="UTF-8"?>
<svg width="64" height="64" version="1.1" viewBox="0 0 16.933 16.933" xmlns="http://www.w3.org/2000/svg" xmlns:cc="http://creativecommons.org/ns#" xmlns:dc="http://purl.org/dc/elements/1.1/" xmlns:rdf="http://www.w3.org/1999/02/22-rdf-syntax-ns#" xmlns:xlink="http://www.w3.org/1999/xlink">
 <defs>
  <linearGradient id="linearGradient1034" x1="12.536" x2="4.4429" y1="14.342" y2="2.9842" gradientTransform="rotate(3.1285 10.155 10.257)" gradientUnits="userSpaceOnUse">
   <stop stop-color="#aeda00" offset="0"/>
   <stop stop-color="#f1ffb2" offset="1"/>
  </linearGradient>
 </defs>
 <metadata>
  <rdf:RDF>
   <cc:Work rdf:about="">
    <dc:format>image/svg+xml</dc:format>
    <dc:type rdf:resource="http://purl.org/dc/dcmitype/StillImage"/>
    <dc:title/>
   </cc:Work>
  </rdf:RDF>
 </metadata>
 <g>
  <path d="m15.761 8.8661a7.3187 7.2129 3.1285 0 1-7.7015 6.8027 7.3187 7.2129 3.1285 0 1-6.9142-7.6016 7.3187 7.2129 3.1285 0 1 7.7015-6.8027 7.3187 7.2129 3.1285 0 1 6.9142 7.6016" fill="url(#linearGradient1034)" style="paint-order:stroke fill markers"/>
 </g>
 <g display="none">
  <path d="m-20.606 21.332a0.13427 0.13427 0 0 1-0.09351 0.12793l-0.04075-0.12793z" fill="#aef" stroke-linecap="square" stroke-linejoin="round" stroke-width="3.316" style="paint-order:markers fill stroke"/>
  <g fill="#006680">
   <rect transform="rotate(3.1285)" x="9.4164" y="5.835" width="4.5914" height="1.4397" ry=".71946" style="paint-order:markers fill stroke"/>
   <g transform="matrix(.84745 .04632 -.04565 .8352 17.531 14.985)">
    <rect x="-17.403" y="-9.6763" width="5.4099" height="1.7212" ry=".86014" style="paint-order:markers fill stroke"/>
    <rect transform="rotate(90)" x="-11.521" y="13.838" width="5.4099" height="1.7212" ry=".86014" style="paint-order:markers fill stroke"/>
   </g>
   <path d="m5.2793 11.457c1.3689 0.87428 2.4884 2.7739 4.1058 2.6243 1.0304-0.0953 4.1915-4.7753 2.0572-4.3435l-6.0395 1.0068c-1.1336 0.11838-0.81294 0.27134-0.12352 0.71245z" stroke-dashoffset="45.808" stroke-linejoin="bevel" stroke-opacity=".99608" stroke-width="2.5522" style="paint-order:stroke markers fill"/>
  </g>
 </g>
 <g>
  <path d="m3.5272 9.6041-0.79678 1.3411c-0.30529 0.51383-1.627 0.44442-1.9204 0.20581-3.7722e-4 -3.08e-4 -7.5564e-4 -6.14e-4 -0.001133-9.21e-4 -0.46929-0.38165-0.67739-1.4977-0.20737-1.9349l1.1563-1.0758c0.54802-0.50983 1.7145-0.97298 2.1108-0.79471 0.30175 0.66578 0.011952 1.5908-0.34143 2.2594z" fill="#2ad4ff" style="paint-order:markers fill stroke"/>
  <path d="m13.406 9.6041 0.79678 1.3411c0.30528 0.51383 1.627 0.44442 1.9204 0.20581 3.77e-4 -3.08e-4 7.56e-4 -6.14e-4 0.0011-9.21e-4 0.46929-0.38165 0.67739-1.4977 0.20737-1.9349l-1.1563-1.0758c-0.54802-0.50983-1.7145-0.97298-2.1108-0.79471-0.30175 0.66578-0.01195 1.5908 0.34143 2.2594z" fill="#2ad4ff" style="paint-order:markers fill stroke"/>
  <g fill="#006680">
   <path d="m4.1065 7.5044c0.00807-0.023978 0.015703-0.049923 0.023115-0.077726 0.093304-0.34785 0.18544-1.1421 0.69633-1.6732 0.17086-0.18302 0.38411-0.34121 0.61629-0.43484 0.21576-0.087585 0.45713-0.12972 0.68024-0.10878 0.10908 0.0081546 0.22025 0.033416 0.32838 0.072274 0.26771 0.096206 0.48968 0.26359 0.63412 0.43878 0.27865 0.32438 0.36561 0.76853 0.42342 0.98699 0.058605 0.22144 0.14148 0.39135 0.35189 0.20687 0.19554-0.17145 0.56358-0.88755 0.11791-1.7819-0.29479-0.58028-0.92007-1.11-1.7778-1.2018-0.45699-0.045119-0.92453 0.040405-1.3441 0.25415-0.16344 0.08356-0.3163 0.18358-0.45651 0.29776-0.2222 0.18095-0.40197 0.38867-0.541 0.60587-0.70842 1.1315-0.32616 2.1597-0.12451 2.4353v1e-7c0.17485 0.23896 0.30081 0.19255 0.37224-0.019774z"/>
   <path d="m9.0696 6.9148c-0.19554-0.17145-0.56358-0.88756-0.11791-1.7819 0.29479-0.58028 0.92007-1.11 1.7778-1.2018 0.45699-0.045119 0.92453 0.040405 1.3441 0.25415 0.16344 0.083559 0.3163 0.18358 0.4565 0.29776 0.2222 0.18095 0.40197 0.38867 0.541 0.60587 0.70842 1.1315 0.32616 2.1597 0.12451 2.4353v1e-7c-0.17485 0.23896-0.30081 0.19255-0.37224-0.019775-0.0081-0.023977-0.0157-0.049922-0.02311-0.077726-0.09331-0.34785-0.18544-1.1421-0.69634-1.6732-0.17086-0.18302-0.38411-0.34121-0.61629-0.43484-0.21576-0.087585-0.45713-0.12972-0.68024-0.10878-0.10908 0.0081546-0.22025 0.033416-0.32838 0.072274-0.26771 0.096206-0.48968 0.26359-0.63412 0.43878-0.27865 0.32438-0.36561 0.76853-0.42342 0.98699-0.058605 0.22145-0.14148 0.39135-0.35189 0.20687z"/>
   <path d="m8.7418 14.22c1.8216-0.03555 3.9751-3.2834 3.764-3.6922-0.83964-1.6256-3.2422-1.1698-4.3313-1.2556-1.2465-0.09831-3.7372 0.35829-3.7379 1.4381-4.47e-4 0.70643 2.4069 3.5468 4.3052 3.5098z" stroke-dashoffset="45.808" stroke-linejoin="bevel" stroke-opacity=".99608" stroke-width="2.5522" style="paint-order:stroke markers fill"/>
  </g>
 </g>
 <g display="none">
  <path d="m4.5208 7.1488c-0.61596 0.0079-1.1099 0.18527-1.1079 0.39739l0.057361 6.2508a7.3187 7.2129 3.1285 0 0 2.2278 1.3653c0.00292-0.01159 0.00993-0.02279 0.00982-0.03462l-0.07028-7.6099c-0.00196-0.21212-0.49922-0.37687-1.1152-0.36897z" display="inline" fill="#2ad4ff" style="paint-order:stroke fill markers"/>
  <path d="m7.3381 7.7676c0.35847-0.072111 0.60169-0.44448 0.5538-0.8017-2.9e-4 -0.28346-0.19288-0.52306-0.43584-0.64859-0.86721-0.54306-1.7331-1.0882-2.6011-1.63-0.35396-0.2127-0.85992-0.038431-1.0115 0.34462-0.15734 0.33924 0.0077 0.76875 0.33951 0.93268 0.40842 0.25612 0.81683 0.51225 1.2252 0.76837-0.51155 0.11966-1.0256 0.23-1.5355 0.35562-0.39513 0.12025-0.60372 0.61228-0.42293 0.98138 0.14174 0.33201 0.54744 0.49932 0.886 0.38581 1.0008-0.2294 2.0016-0.45881 3.0024-0.68821z" display="inline" fill="#006680" style="paint-order:markers fill stroke"/>
  <path d="m12.315 7.1488c0.61596 0.0079 1.1099 0.18527 1.1079 0.39739l-0.05736 6.2508a7.2129 7.3187 86.871 0 1-2.2278 1.3653c-0.0029-0.01159-0.0099-0.02279-0.0098-0.03462l0.07028-7.6099c2e-3 -0.21212 0.49922-0.37687 1.1152-0.36897z" display="inline" fill="#2ad4ff" style="paint-order:stroke fill markers"/>
  <path d="m9.498 7.7676c-0.35847-0.072111-0.60169-0.44448-0.5538-0.8017 2.9e-4 -0.28346 0.19288-0.52306 0.43584-0.64859 0.86721-0.54306 1.7331-1.0882 2.6011-1.63 0.35396-0.2127 0.85992-0.038431 1.0115 0.34462 0.15734 0.33924-0.0077 0.76875-0.33951 0.93268-0.40842 0.25612-0.81683 0.51225-1.2252 0.76837 0.51155 0.11966 1.0256 0.23 1.5355 0.35562 0.39513 0.12025 0.60372 0.61228 0.42293 0.98138-0.14174 0.33201-0.54744 0.49932-0.886 0.38581-1.0008-0.2294-2.0016-0.45881-3.0024-0.68821z" display="inline" fill="#006680" style="paint-order:markers fill stroke"/>
  <rect transform="matrix(.0097587 .99995 -1 .0022159 0 0)" x="10.572" y="-9.2769" width="3.1392" height="2.0657" ry="1.0323" display="inline" fill="#006680" style="paint-order:markers fill stroke"/>
 </g>
</svg>
